<?xml version="1.0" standalone="no"?>
<!DOCTYPE svg PUBLIC "-//W3C//DTD SVG 20010904//EN"
 "http://www.w3.org/TR/2001/REC-SVG-20010904/DTD/svg10.dtd">
<svg version="1.0" xmlns="http://www.w3.org/2000/svg"
 width="544.000000pt" height="544.000000pt" viewBox="0 0 544.000000 544.000000"
 preserveAspectRatio="xMidYMid meet">
<g transform="translate(-170.000000,544.000000) scale(0.100000,-0.100000)"
stroke="none">
<path fill="#666666" d="M6075 5162 c-28 -10 -163 -87 -300 -173 -138 -85 -278 -172 -312
-193 -80 -49 -89 -60 -75 -90 7 -16 35 -33 93 -56 122 -48 196 -95 273 -173
68 -68 115 -97 156 -97 11 0 133 32 272 71 139 39 381 102 538 140 247 61 288
74 308 96 30 33 24 76 -16 115 -68 67 -412 259 -560 312 -184 65 -288 79 -377
48z"/>
<path fill="#7f7f7f" d="M4959 5427 c-61 -17 -133 -61 -157 -95 -10 -15 -58 -112 -107 -217
-82 -177 -87 -191 -74 -214 25 -44 66 -58 199 -71 69 -6 170 -20 225 -31 162
-33 166 -32 303 108 64 66 153 147 197 180 136 102 213 197 190 234 -21 34
-198 80 -375 98 -174 18 -352 21 -401 8z"/>
<path fill="#efff00" d="M4032 5295 c-230 -61 -647 -244 -726 -319 -62 -58 -43 -109 75 -198
41 -31 114 -91 162 -134 180 -161 219 -163 472 -19 71 40 178 97 236 125 59
28 115 60 124 70 28 31 28 96 0 260 -31 183 -39 206 -76 225 -43 23 -159 18
-267 -10z"/>
<path fill="#81fe00" d="M2997 4639 c-62 -14 -110 -44 -244 -151 -146 -116 -290 -257 -416
-408 -101 -120 -130 -173 -125 -227 4 -48 44 -77 131 -92 81 -14 541 -14 626
0 132 21 205 73 266 191 16 32 67 108 113 169 135 179 147 260 49 340 -175
145 -301 201 -400 178z"/>
<path fill="#23ff00" d="M2668 3555 c-181 -45 -343 -88 -360 -96 -81 -32 -173 -112 -208 -179
-21 -41 -118 -335 -154 -465 -41 -150 -76 -310 -112 -515 -49 -278 -46 -320
22 -320 45 0 54 5 321 176 416 268 947 627 983 666 34 37 34 71 1 171 -63 189
-74 305 -45 466 14 79 14 91 0 124 -16 39 -47 58 -94 56 -15 0 -174 -38 -354
-84z"/>
<path fill="#01e59a" d="M3291 2634 c-21 -9 -222 -202 -512 -491 -532 -530 -525 -521 -517
-638 3 -54 12 -77 67 -176 183 -328 449 -655 746 -918 228 -202 481 -388 539
-398 84 -13 104 11 130 157 17 90 42 226 157 830 68 359 118 622 180 954 l53
279 -20 36 c-24 45 -72 77 -143 97 -207 57 -279 89 -457 205 -130 85 -156 92
-223 63z"/>
<path fill="#16a8e5" d="M5025 2460 c-16 -4 -58 -19 -93 -33 -35 -14 -104 -36 -155 -47 -172
-41 -323 -79 -350 -89 -32 -13 -63 -61 -72 -111 -3 -20 1 -140 9 -266 9 -126
31 -479 51 -784 47 -746 47 -749 79 -796 61 -92 133 -109 389 -95 381 22 708
99 1064 251 221 95 516 272 553 332 27 44 27 132 1 173 -10 17 -186 219 -391
450 -205 231 -489 551 -631 712 -220 248 -265 294 -297 302 -42 12 -112 13
-157 1z"/>
</g>
</svg>
